<svg id="a" height="512" viewBox="0 0 64 64" width="512" xmlns="http://www.w3.org/2000/svg"
    data-name="original">
    <path
        d="m52.55 11.5c.86 1.38 1.11 3.12.54 4.79l-.22.67-.2.6-10.47 31.81c-.35 1.03-.93 1.91-1.65 2.62-.01.01-.03.02-.04.03-.87.45-3.33 1.13-4.31.65-.71-.33-1.22-.83-1.68-1.5-.35-.52-.61-1.09-.81-1.68l-1.59-4.77 5.91-17.87.67-2.03 3.99-12.06c.48-1.4 1.44-2.49 2.64-3.14.8-.44 1.7-.68 2.63-.68.36 0 .72.04 1.08.11.22.05.44.1.65.18 1.14.38 2.07 1.11 2.71 2.04l.02.04z"
        fill="#0A5C54" />
    <path
        d="m40.55 51.99c.03-.01.06-.03.08-.04-1.63 1.78-5.56 2.74-5.93 2.82-5.74 1.26-11.54-1.69-13.51-7.32l-10.27-31.08c-1.02-2.9.51-6.07 3.41-7.09s6.07.51 7.09 3.41l10.7 32.03 1.59 4.77c.2.59.46 1.16.81 1.68.46.67.97 1.17 1.68 1.5.98.48 3.44-.2 4.31-.65.01-.01.03-.02.04-.03z"
        fill="#118379" />
</svg>